<svg xmlns="http://www.w3.org/2000/svg" viewBox="0 0 512 512">
  <defs>
    <linearGradient id="shieldGrad" x1="0%" y1="0%" x2="100%" y2="100%">
      <stop offset="0%" style="stop-color:#6C63FF;stop-opacity:1" />
      <stop offset="100%" style="stop-color:#3B82F6;stop-opacity:1" />
    </linearGradient>
    <linearGradient id="lockGrad" x1="0%" y1="0%" x2="0%" y2="100%">
      <stop offset="0%" style="stop-color:#ffffff;stop-opacity:1" />
      <stop offset="100%" style="stop-color:#e0e0ff;stop-opacity:1" />
    </linearGradient>
  </defs>
  <!-- Shield -->
  <path d="M256 28 L462 120 C462 120 472 320 256 484 C40 320 50 120 50 120 Z" fill="url(#shieldGrad)" stroke="none"/>
  <path d="M256 56 L438 138 C438 138 447 312 256 458 C65 312 74 138 74 138 Z" fill="#1a1a2e" stroke="none"/>
  <!-- Lock body -->
  <rect x="196" y="248" width="120" height="100" rx="12" fill="url(#lockGrad)"/>
  <!-- Lock shackle -->
  <path d="M216 248 L216 200 C216 168 232 148 256 148 C280 148 296 168 296 200 L296 248" fill="none" stroke="url(#lockGrad)" stroke-width="20" stroke-linecap="round"/>
  <!-- Keyhole -->
  <circle cx="256" cy="288" r="14" fill="#1a1a2e"/>
  <rect x="252" y="296" width="8" height="24" rx="4" fill="#1a1a2e"/>
</svg>